<svg width="550" height="163" viewBox="0 0 550 163" fill="none" xmlns="http://www.w3.org/2000/svg">
<path d="M59.4438 132.584H9.53343V53.0644H22.9924V119.798H59.4438V132.584ZM85.4294 132.584H71.7461V53.0644H85.4294V132.584ZM132.871 114.976L155.191 53.0644H169.435L139.377 132.584H125.693L96.0835 53.0644H110.664L132.871 114.976ZM229.196 132.584H180.071V53.0644H229.196V65.6261H193.53V86.7118H225.831V98.9371H193.53V120.023H229.196V132.584ZM286.63 89.6279H300.649C304.911 89.6279 308.239 88.5437 310.631 86.3754C313.099 84.1322 314.333 81.1413 314.333 77.4027C314.333 73.5893 313.099 70.5611 310.631 68.3179C308.239 66.0747 304.911 64.9532 300.649 64.9532H286.63V89.6279ZM302.668 101.517H286.63V132.584H273.171V53.0644H302.668C310.22 53.0644 316.314 55.345 320.95 59.9061C325.661 64.4671 328.016 70.262 328.016 77.2906C328.016 84.3939 325.661 90.2261 320.95 94.7872C316.314 99.2735 310.22 101.517 302.668 101.517ZM348.698 118.004C351.689 121.07 355.316 122.602 359.578 122.602C363.84 122.602 367.429 121.07 370.345 118.004C373.336 114.938 374.831 110.676 374.831 105.218C374.831 99.8343 373.336 95.6471 370.345 92.6562C367.429 89.5906 363.84 88.0577 359.578 88.0577C355.316 88.0577 351.689 89.5906 348.698 92.6562C345.782 95.6471 344.324 99.8343 344.324 105.218C344.324 110.601 345.782 114.863 348.698 118.004ZM359.578 76.2811C367.803 76.2811 374.57 79.0103 379.878 84.4687C385.262 89.927 387.954 96.8434 387.954 105.218C387.954 113.592 385.262 120.546 379.878 126.079C374.57 131.538 367.803 134.267 359.578 134.267C351.428 134.267 344.661 131.538 339.277 126.079C333.968 120.546 331.314 113.592 331.314 105.218C331.314 96.8434 333.968 89.927 339.277 84.4687C344.661 79.0103 351.428 76.2811 359.578 76.2811ZM413.425 132.584H400.527V77.9635H413.425V132.584ZM400.976 64.7288C399.331 63.0839 398.508 61.1024 398.508 58.7845C398.508 56.4665 399.331 54.4851 400.976 52.8401C402.621 51.1203 404.602 50.2605 406.92 50.2605C409.313 50.2605 411.331 51.083 412.976 52.7279C414.621 54.3729 415.444 56.3918 415.444 58.7845C415.444 61.1024 414.621 63.0839 412.976 64.7288C411.331 66.3738 409.313 67.1963 406.92 67.1963C404.602 67.1963 402.621 66.3738 400.976 64.7288ZM443.22 101.068V132.584H430.209V77.9635H442.883V85.2538C444.603 82.2629 446.884 80.0571 449.725 78.6364C452.641 77.141 455.744 76.3933 459.034 76.3933C465.464 76.3933 470.362 78.4121 473.727 82.4498C477.091 86.4875 478.774 91.6842 478.774 98.0398V132.584H465.763V100.283C465.763 96.6191 464.866 93.703 463.072 91.5346C461.277 89.2915 458.436 88.1699 454.548 88.1699C450.959 88.1699 448.155 89.4036 446.136 91.8711C444.192 94.2638 443.22 97.3295 443.22 101.068ZM511.1 61.2519V77.9635H522.428V89.5158H511.1V114.863C511.1 117.256 511.661 119.013 512.782 120.135C513.904 121.182 515.661 121.705 518.054 121.705C519.549 121.705 521.045 121.556 522.54 121.257V132.024C520.596 132.846 517.942 133.257 514.577 133.257C509.492 133.257 505.492 131.837 502.576 128.995C499.66 126.079 498.202 122.079 498.202 116.995V89.5158H488.107V77.9635H490.911C493.678 77.9635 495.772 77.1784 497.192 75.6082C498.613 74.038 499.323 71.9817 499.323 69.4395V61.2519H511.1Z" fill="white"/>
<path d="M507 16.841H523.647V0H532.413V16.841H549.059V25.0456H532.413V42.0593H523.647V25.0456H507V16.841Z" fill="white"/>
</svg>
